<?xml version="1.0" encoding="UTF-8"?>
<svg xmlns="http://www.w3.org/2000/svg" xmlns:xlink="http://www.w3.org/1999/xlink" viewBox="0 0 48 48" width="48px" height="48px">
<g id="surface3388845">
<path style=" stroke:none;fill-rule:nonzero;fill:rgb(57.647061%,52.549022%,46.27451%);fill-opacity:1;" d="M 38 6 L 10 6 C 7.789062 6 6 7.789062 6 10 L 6 38 C 6 40.210938 7.789062 42 10 42 L 25.242188 42 L 25.242188 28.078125 L 20.554688 28.078125 L 20.554688 22.628906 L 25.242188 22.628906 L 25.242188 18.617188 C 25.242188 13.96875 28.085938 11.4375 32.230469 11.4375 C 33.628906 11.433594 35.027344 11.503906 36.414062 11.644531 L 36.414062 16.507812 L 33.558594 16.507812 C 31.300781 16.507812 30.859375 17.574219 30.859375 19.148438 L 30.859375 22.621094 L 36.261719 22.621094 L 35.558594 28.070312 L 30.828125 28.070312 L 30.828125 42 L 38 42 C 40.210938 42 42 40.210938 42 38 L 42 10 C 42 7.789062 40.210938 6 38 6 Z M 38 6 "/>
</g>
</svg>
